<svg xmlns="http://www.w3.org/2000/svg" width="76.583" height="59.387" viewBox="0 0 76.583 59.387">
  <g id="connectdirectly500" transform="translate(-9.01 -71.22)">
    <g id="Groupe_132" data-name="Groupe 132" transform="translate(34.35 106.228)">
      <g id="Groupe_128" data-name="Groupe 128">
        <path id="Tracé_104" data-name="Tracé 104" d="M198.855,313.867H169.7a2.189,2.189,0,0,1-2.187-2.186V292a2.189,2.189,0,0,1,2.187-2.186h29.158A2.189,2.189,0,0,1,201.042,292v19.682A2.188,2.188,0,0,1,198.855,313.867Zm-29.158-22.6a.729.729,0,0,0-.729.729v19.682a.729.729,0,0,0,.729.729h29.158a.729.729,0,0,0,.729-.729V292a.729.729,0,0,0-.729-.729Z" transform="translate(-167.349 -289.649)" fill="#fff"/>
        <path id="Tracé_105" data-name="Tracé 105" d="M198.016,313.188H168.857a2.35,2.35,0,0,1-2.347-2.347V291.157a2.35,2.35,0,0,1,2.347-2.347h29.158a2.35,2.35,0,0,1,2.347,2.347v19.682A2.349,2.349,0,0,1,198.016,313.188Zm-29.158-24.057a2.028,2.028,0,0,0-2.026,2.026v19.682a2.028,2.028,0,0,0,2.026,2.026h29.158a2.028,2.028,0,0,0,2.026-2.026V291.157a2.028,2.028,0,0,0-2.026-2.026Zm29.158,22.6H168.857a.891.891,0,0,1-.89-.89V291.157a.891.891,0,0,1,.89-.89h29.158a.891.891,0,0,1,.89.89v19.682A.89.89,0,0,1,198.016,311.729Zm-29.158-21.14a.568.568,0,0,0-.568.568v19.682a.568.568,0,0,0,.568.568h29.158a.568.568,0,0,0,.568-.568V291.157a.568.568,0,0,0-.568-.568Z" transform="translate(-166.51 -288.81)" fill="#fff"/>
      </g>
      <g id="Groupe_129" data-name="Groupe 129" transform="translate(2.915 2.188)">
        <path id="Tracé_106" data-name="Tracé 106" d="M199.483,316.6a5.819,5.819,0,0,1-4.124-1.705l-9.514-9.514a.729.729,0,0,1,1.031-1.031l9.514,9.514a4.374,4.374,0,0,0,6.185,0l10.242-10.242a.729.729,0,1,1,1.031,1.031L203.607,314.89A5.819,5.819,0,0,1,199.483,316.6Z" transform="translate(-185.471 -303.243)" fill="#fff"/>
        <path id="Tracé_107" data-name="Tracé 107" d="M198.642,315.923a5.957,5.957,0,0,1-4.238-1.752l-9.514-9.514a.89.89,0,0,1,1.258-1.258l9.514,9.514a4.214,4.214,0,0,0,5.959,0l10.242-10.242a.89.89,0,1,1,1.258,1.258L202.88,314.171A5.957,5.957,0,0,1,198.642,315.923ZM185.52,303.459a.569.569,0,0,0-.4.97l9.514,9.513a5.675,5.675,0,0,0,8.019,0L212.892,303.7a.567.567,0,0,0,0-.8.582.582,0,0,0-.8,0l-10.242,10.242a4.537,4.537,0,0,1-6.413,0l-9.514-9.514A.565.565,0,0,0,185.52,303.459Z" transform="translate(-184.63 -302.41)" fill="#fff"/>
      </g>
      <g id="Groupe_130" data-name="Groupe 130" transform="translate(2.915 13.121)">
        <path id="Tracé_108" data-name="Tracé 108" d="M186.361,379.373a.721.721,0,0,1-.515-.214.729.729,0,0,1,0-1.031l6.561-6.561a.729.729,0,1,1,1.031,1.031l-6.561,6.561A.727.727,0,0,1,186.361,379.373Z" transform="translate(-185.471 -371.193)" fill="#fff"/>
        <path id="Tracé_109" data-name="Tracé 109" d="M185.52,378.7a.89.89,0,0,1-.629-1.519l6.561-6.561a.89.89,0,0,1,1.258,1.258l-6.561,6.561A.878.878,0,0,1,185.52,378.7Zm6.561-8.017a.568.568,0,0,0-.4.166l-6.561,6.561a.562.562,0,0,0-.166.4.571.571,0,0,0,.166.4.582.582,0,0,0,.8,0l6.561-6.561a.567.567,0,0,0,0-.8A.556.556,0,0,0,192.081,370.683Z" transform="translate(-184.63 -370.36)" fill="#fff"/>
      </g>
      <g id="Groupe_131" data-name="Groupe 131" transform="translate(22.597 13.121)">
        <path id="Tracé_110" data-name="Tracé 110" d="M315.252,379.373a.721.721,0,0,1-.515-.214l-6.561-6.561a.729.729,0,1,1,1.031-1.031l6.561,6.561a.73.73,0,0,1-.516,1.245Z" transform="translate(-307.801 -371.193)" fill="#fff"/>
        <path id="Tracé_111" data-name="Tracé 111" d="M314.411,378.7a.885.885,0,0,1-.629-.261l-6.561-6.561a.89.89,0,0,1,1.258-1.258l6.561,6.561a.889.889,0,0,1,0,1.258A.878.878,0,0,1,314.411,378.7Zm-6.56-8.017a.567.567,0,0,0-.4.969l6.561,6.561a.582.582,0,0,0,.8,0,.567.567,0,0,0,0-.8l-6.561-6.561A.564.564,0,0,0,307.851,370.683Z" transform="translate(-306.96 -370.36)" fill="#fff"/>
      </g>
    </g>
    <g id="Groupe_138" data-name="Groupe 138" transform="translate(50.28 73.704)">
      <g id="Groupe_133" data-name="Groupe 133" transform="translate(0 0)">
        <path id="Tracé_112" data-name="Tracé 112" d="M271.624,112.133a1.484,1.484,0,0,1-.56-.111,1.452,1.452,0,0,1-.9-1.347V106.6h-.729a2.919,2.919,0,0,1-2.915-2.915V90.565a2.919,2.919,0,0,1,2.915-2.915H287.66a2.919,2.919,0,0,1,2.915,2.915v13.122a2.919,2.919,0,0,1-2.915,2.915h-9.9l-5.1,5.1A1.448,1.448,0,0,1,271.624,112.133Zm-2.188-23.027a1.458,1.458,0,0,0-1.458,1.458v13.122a1.458,1.458,0,0,0,1.458,1.458h2.187v5.53l5.53-5.53H287.66a1.458,1.458,0,0,0,1.458-1.458V90.564a1.458,1.458,0,0,0-1.458-1.458Z" transform="translate(-266.359 -87.491)" fill="#fff"/>
        <path id="Tracé_113" data-name="Tracé 113" d="M270.784,111.463a1.621,1.621,0,0,1-1.62-1.619v-3.911H268.6a3.08,3.08,0,0,1-3.076-3.076V89.736A3.08,3.08,0,0,1,268.6,86.66h18.224a3.08,3.08,0,0,1,3.076,3.076v13.121a3.08,3.08,0,0,1-3.076,3.076h-9.837l-5.055,5.055A1.609,1.609,0,0,1,270.784,111.463ZM268.6,86.979a2.758,2.758,0,0,0-2.754,2.754v13.121a2.758,2.758,0,0,0,2.754,2.754h.89v4.233a1.3,1.3,0,0,0,2.214.917l5.15-5.15h9.97a2.758,2.758,0,0,0,2.754-2.754V89.733a2.758,2.758,0,0,0-2.754-2.754H268.6Zm2.027,23.254v-5.757H268.6a1.62,1.62,0,0,1-1.619-1.619V89.736a1.62,1.62,0,0,1,1.619-1.619h18.224a1.62,1.62,0,0,1,1.619,1.619v13.121a1.62,1.62,0,0,1-1.619,1.619h-10.44Zm-2.027-21.8a1.3,1.3,0,0,0-1.3,1.3v13.121a1.3,1.3,0,0,0,1.3,1.3h2.347v5.3l5.3-5.3h10.574a1.3,1.3,0,0,0,1.3-1.3V89.733a1.3,1.3,0,0,0-1.3-1.3Z" transform="translate(-265.52 -86.66)" fill="#fff"/>
      </g>
      <g id="Groupe_134" data-name="Groupe 134" transform="translate(12.392 5.831)">
        <path id="Tracé_114" data-name="Tracé 114" d="M359.576,148.375a1.455,1.455,0,0,1-1.03-.428l-5.1-5.1h-6.988a2.919,2.919,0,0,1-2.915-2.915V138.47H345v1.458a1.458,1.458,0,0,0,1.458,1.458h7.591l5.531,5.53v-5.53h3.644a1.459,1.459,0,0,0,1.458-1.458V126.805a1.459,1.459,0,0,0-1.458-1.458h-6.56V123.89h6.561a2.918,2.918,0,0,1,2.915,2.915v13.122a2.918,2.918,0,0,1-2.915,2.915h-2.186v4.072a1.452,1.452,0,0,1-.9,1.347A1.47,1.47,0,0,1,359.576,148.375Z" transform="translate(-343.379 -123.731)" fill="#fff"/>
        <path id="Tracé_115" data-name="Tracé 115" d="M358.737,147.7a1.612,1.612,0,0,1-1.144-.475l-5.055-5.055h-6.922a3.08,3.08,0,0,1-3.076-3.076V137.48h1.779V139.1a1.3,1.3,0,0,0,1.3,1.3h7.658l5.3,5.3v-5.3h3.805a1.3,1.3,0,0,0,1.3-1.3V125.976a1.3,1.3,0,0,0-1.3-1.3h-6.72V122.9h6.722a3.08,3.08,0,0,1,3.076,3.076V139.1a3.08,3.08,0,0,1-3.076,3.076h-2.026v3.91a1.621,1.621,0,0,1-1.622,1.62Zm-15.875-9.9v1.3a2.758,2.758,0,0,0,2.754,2.754h7.055l5.15,5.15a1.3,1.3,0,0,0,2.214-.917v-4.233h2.347a2.758,2.758,0,0,0,2.754-2.754V125.975a2.758,2.758,0,0,0-2.754-2.754h-6.4v1.136h6.4A1.62,1.62,0,0,1,364,125.975V139.1a1.62,1.62,0,0,1-1.619,1.619H358.9v5.757l-5.758-5.757h-7.525A1.62,1.62,0,0,1,344,139.1v-1.3Z" transform="translate(-342.54 -122.9)" fill="#fff"/>
      </g>
      <g id="Groupe_135" data-name="Groupe 135" transform="translate(7.29 9.475)">
        <rect id="Rectangle_46" data-name="Rectangle 46" width="2.187" height="1.458" transform="translate(0.161 0.159)" fill="#fff"/>
        <path id="Tracé_116" data-name="Tracé 116" d="M313.338,147.329H310.83V145.55h2.508Zm-2.187-.322h1.865v-1.136h-1.865Z" transform="translate(-310.83 -145.55)" fill="#fff"/>
      </g>
      <g id="Groupe_136" data-name="Groupe 136" transform="translate(10.936 9.475)">
        <rect id="Rectangle_47" data-name="Rectangle 47" width="2.187" height="1.458" transform="translate(0.159 0.159)" fill="#fff"/>
        <path id="Tracé_117" data-name="Tracé 117" d="M336,147.329H333.49V145.55H336Zm-2.188-.322h1.865v-1.136H333.81Z" transform="translate(-333.49 -145.55)" fill="#fff"/>
      </g>
      <g id="Groupe_137" data-name="Groupe 137" transform="translate(14.58 9.475)">
        <rect id="Rectangle_48" data-name="Rectangle 48" width="2.187" height="1.458" transform="translate(0.161 0.159)" fill="#fff"/>
        <path id="Tracé_118" data-name="Tracé 118" d="M358.648,147.329H356.14V145.55h2.508Zm-2.187-.322h1.865v-1.136h-1.865Z" transform="translate(-356.14 -145.55)" fill="#fff"/>
      </g>
    </g>
    <g id="Groupe_143" data-name="Groupe 143" transform="translate(9.01 71.22)">
      <g id="Groupe_139" data-name="Groupe 139" transform="translate(0 0)">
        <path id="Tracé_119" data-name="Tracé 119" d="M38.114,103.786l-.41-.023c-1.5-.08-9.394-.925-18.06-9.589h0c-8.662-8.662-9.509-16.564-9.591-18.06l-.023-.41.339-.232a20.366,20.366,0,0,1,6.674-3.034l.412-.108.3.3a25.042,25.042,0,0,1,4.84,7.259l.188.452-2.962,2.962a17.979,17.979,0,0,0,4.375,6.317A18,18,0,0,0,30.508,94l2.962-2.962.452.188a25.071,25.071,0,0,1,7.261,4.84l.3.3-.108.412a20.356,20.356,0,0,1-3.033,6.672ZM20.675,93.143c7.687,7.687,14.813,8.933,16.7,9.131a18.792,18.792,0,0,0,2.481-5.456A23.829,23.829,0,0,0,33.8,92.766l-2.877,2.877-.407-.109c-.566-.153-3.585-1.1-7.359-4.878s-4.725-6.793-4.878-7.359l-.109-.407,2.877-2.877A24.288,24.288,0,0,0,17,73.96a18.711,18.711,0,0,0-5.457,2.481c.2,1.889,1.448,9.015,9.134,16.7Z" transform="translate(-9.866 -72.151)" fill="#fff"/>
        <path id="Tracé_120" data-name="Tracé 120" d="M37.34,103.02l-.5-.027c-1.506-.082-9.457-.93-18.165-9.637S9.119,76.7,9.037,75.191l-.027-.5.415-.283a20.5,20.5,0,0,1,6.722-3.055l.5-.132.362.372A25.172,25.172,0,0,1,21.883,78.9l.23.55L19.146,82.42a18.13,18.13,0,0,0,4.3,6.162,18.131,18.131,0,0,0,6.162,4.3l2.965-2.965.55.23a25.236,25.236,0,0,1,7.311,4.872l.372.362-.132.5a20.5,20.5,0,0,1-3.055,6.722Zm-28-28.167.018.32c.08,1.485.922,9.332,9.544,17.954s16.469,9.462,17.956,9.543l.32.018.18-.264a20.21,20.21,0,0,0,3.01-6.622l.085-.32-.238-.232a24.836,24.836,0,0,0-7.211-4.806l-.352-.148L29.7,93.254l-.1-.034a18.194,18.194,0,0,1-6.376-4.412,18.233,18.233,0,0,1-4.413-6.376l-.034-.1,2.959-2.959-.148-.352a24.85,24.85,0,0,0-4.806-7.21l-.232-.238-.32.084a20.181,20.181,0,0,0-6.622,3.01Zm27.26,26.66-.1-.01c-2-.211-9.113-1.493-16.8-9.177h0c-7.681-7.681-8.967-14.8-9.177-16.8l-.01-.1.082-.053a18.791,18.791,0,0,1,5.5-2.5l.095-.026.066.072a24.642,24.642,0,0,1,4.08,6.095l.047.1-2.89,2.89.085.317c.15.56,1.089,3.54,4.836,7.288s6.727,4.685,7.287,4.836l.317.085,2.89-2.89.1.047a24.106,24.106,0,0,1,6.1,4.079l.072.068-.026.095a18.843,18.843,0,0,1-2.5,5.5ZM19.933,92.1c7.49,7.49,14.409,8.836,16.508,9.074a18.433,18.433,0,0,0,2.38-5.235,23.85,23.85,0,0,0-5.836-3.91L30.121,94.89l-.5-.134c-.574-.154-3.63-1.117-7.432-4.92s-4.766-6.859-4.92-7.432l-.134-.5L20,79.044a24.346,24.346,0,0,0-3.91-5.836,18.472,18.472,0,0,0-5.235,2.38c.24,2.1,1.59,9.023,9.076,16.509Z" transform="translate(-9.01 -71.22)" fill="#fff"/>
      </g>
      <g id="Groupe_140" data-name="Groupe 140" transform="translate(17.04 10.11)">
        <path id="Tracé_121" data-name="Tracé 121" d="M120.3,139.433h-1.458a2.919,2.919,0,0,0-2.915-2.915V135.06A4.377,4.377,0,0,1,120.3,139.433Z" transform="translate(-115.768 -134.899)" fill="#fff"/>
        <path id="Tracé_122" data-name="Tracé 122" d="M119.615,138.755h-1.779v-.161a2.758,2.758,0,0,0-2.754-2.754h-.161V134.06h.161a4.539,4.539,0,0,1,4.534,4.536Zm-1.461-.322h1.138a4.219,4.219,0,0,0-4.05-4.05v1.137A3.082,3.082,0,0,1,118.154,138.433Z" transform="translate(-114.92 -134.06)" fill="#fff"/>
      </g>
      <g id="Groupe_141" data-name="Groupe 141" transform="translate(17.04 6.465)">
        <path id="Tracé_123" data-name="Tracé 123" d="M123.939,120.419h-1.458a6.568,6.568,0,0,0-6.561-6.561V112.4A8.027,8.027,0,0,1,123.939,120.419Z" transform="translate(-115.759 -112.239)" fill="#fff"/>
        <path id="Tracé_124" data-name="Tracé 124" d="M123.261,119.741h-1.779v-.161a6.407,6.407,0,0,0-6.4-6.4h-.161V111.4h.161a8.19,8.19,0,0,1,8.18,8.18Zm-1.459-.322h1.136a7.868,7.868,0,0,0-7.7-7.7v1.136A6.732,6.732,0,0,1,121.8,119.419Z" transform="translate(-114.92 -111.4)" fill="#fff"/>
      </g>
      <g id="Groupe_142" data-name="Groupe 142" transform="translate(17.04 2.819)">
        <path id="Tracé_125" data-name="Tracé 125" d="M127.583,101.413h-1.458A10.217,10.217,0,0,0,115.92,91.208V89.75A11.675,11.675,0,0,1,127.583,101.413Z" transform="translate(-115.759 -89.588)" fill="#fff"/>
        <path id="Tracé_126" data-name="Tracé 126" d="M126.9,100.726h-1.779v-.161a10.057,10.057,0,0,0-10.044-10.044h-.161V88.74h.161A11.838,11.838,0,0,1,126.9,100.566Zm-1.459-.322h1.136A11.518,11.518,0,0,0,115.24,89.063V90.2A10.378,10.378,0,0,1,125.446,100.4Z" transform="translate(-114.92 -88.74)" fill="#fff"/>
      </g>
    </g>
  </g>
</svg>